<svg xmlns="http://www.w3.org/2000/svg" viewBox="0 0 632.88 116.81"><defs><style>.a{fill:#ec663b;}</style></defs><path d="M286.12,111.18q8.08-.17,13.54,2.88a23.22,23.22,0,0,1,8.48,7.85,24.8,24.8,0,0,1,2.49,5.92,9.49,9.49,0,0,1,.24,1.41,1.65,1.65,0,0,1-1.45,1.88,15.4,15.4,0,0,1-1.6.08h-5.2c-.59,0-1.14,0-1.64,0a2.1,2.1,0,0,1-1.24-.44,2.47,2.47,0,0,1-1-1.36,12,12,0,0,0-.69-1.69,25.35,25.35,0,0,0-1.52-2.12,9.45,9.45,0,0,0-1.92-1.8,13.32,13.32,0,0,0-3.68-1.68,3.06,3.06,0,0,0-.88-.2c-.32,0-.62-.07-.88-.12a2.58,2.58,0,0,0-.73-.08,9.77,9.77,0,0,0-2.4,0,20.05,20.05,0,0,0-2.24.28,8,8,0,0,1-1,.24,3.29,3.29,0,0,0-1,.32,18.77,18.77,0,0,0-3.73,2.08,11.66,11.66,0,0,0-2.84,3,13,13,0,0,0-1.76,3.29c-.43,1.17-.83,2.43-1.2,3.76a10,10,0,0,0-.32,1.76c-.06.59-.14,1.18-.24,1.76v1.05a2.55,2.55,0,0,0-.12,1c0,.37,0,.75,0,1.12,0,.91,0,1.81.08,2.72a12.13,12.13,0,0,0,.4,2.56,2.59,2.59,0,0,1,.08.56,2.15,2.15,0,0,0,.08.57,23.08,23.08,0,0,0,3,6.92,12.63,12.63,0,0,0,5.53,4.45c.48.21,1,.39,1.48.56s1.05.32,1.64.48a3.61,3.61,0,0,0,.92,0,1.72,1.72,0,0,1,.84.12,4.05,4.05,0,0,0,1.2.16,4.92,4.92,0,0,0,1.28-.16,2.27,2.27,0,0,1,.72,0,2,2,0,0,0,.65,0,1.81,1.81,0,0,1,.68,0,1.06,1.06,0,0,0,.6-.12l2.08-.6a9.55,9.55,0,0,0,1.84-.77A11.35,11.35,0,0,0,298,156a15.2,15.2,0,0,0,2.09-3.88,8.83,8.83,0,0,0,.44-2.08,1.56,1.56,0,0,0-.76-1.68,2.19,2.19,0,0,0-1.25-.33h-5.56c-.32,0-.67,0-1,0a2.53,2.53,0,0,1-1-.12h-.72l-.64-.12a1.18,1.18,0,0,1-.57-.2,1.75,1.75,0,0,1-.56-1,8.13,8.13,0,0,1-.2-1.4c0-.51,0-1,0-1.6s0-1.08,0-1.56,0-.83,0-1.2a3.44,3.44,0,0,1,.2-1,1.75,1.75,0,0,1,.88-1,2.55,2.55,0,0,1,.81-.16H291a1.74,1.74,0,0,1,.6-.08h17.77a2.83,2.83,0,0,1,2.29.72,3.21,3.21,0,0,1,.4,1.68v23.46c0,1,0,2,0,2.92a1.79,1.79,0,0,1-1.08,1.81,2.58,2.58,0,0,1-1.16.24h-1.33c-1.06,0-2-.05-2.76-.12a1.91,1.91,0,0,1-1.64-1.25,6.81,6.81,0,0,1-.48-1.6,4.57,4.57,0,0,0-.56-1.52l-.4-.36a.76.76,0,0,0-.64-.12,2.13,2.13,0,0,0-1.08.64,9.46,9.46,0,0,1-.92.88c-.54.43-1.05.82-1.53,1.16s-1,.71-1.6,1.08a11.11,11.11,0,0,1-2.2,1.05l-2.36.8a3.43,3.43,0,0,1-.84.2,5.31,5.31,0,0,0-.84.12,6,6,0,0,1-1.37.16,6.49,6.49,0,0,0-1.44.16,3.55,3.55,0,0,1-.92,0,4.28,4.28,0,0,1-.84-.12h-.8a3.45,3.45,0,0,0-.76-.08,4.18,4.18,0,0,1-.76-.08h-.64a9.6,9.6,0,0,0-1.28-.24c-.43-.06-.86-.14-1.28-.24s-.75-.2-1.13-.28-.74-.18-1.12-.28a24.32,24.32,0,0,1-4.24-1.68,26.33,26.33,0,0,1-7.69-5.89,30.43,30.43,0,0,1-5-8.45,12.14,12.14,0,0,1-.72-2.24,18.31,18.31,0,0,0-.64-2.24,3.16,3.16,0,0,1-.08-.68,2.1,2.1,0,0,0-.16-.69,4.06,4.06,0,0,1-.16-1.16,5,5,0,0,0-.17-1.24,1.51,1.51,0,0,1-.12-.68,2,2,0,0,0,0-.68v-1.44a3.5,3.5,0,0,1-.16-1.24,3.46,3.46,0,0,1,.16-1.24v-.89a4.06,4.06,0,0,0,0-1,2.29,2.29,0,0,1,.12-.93,6.44,6.44,0,0,0,.17-1.44,5.45,5.45,0,0,1,.16-1.36c.16-.59.29-1.16.4-1.72a9.9,9.9,0,0,1,.48-1.72c.26-.75.52-1.48.76-2.2a21.39,21.39,0,0,1,.84-2.13,19,19,0,0,1,1.12-2.2c.43-.72.85-1.4,1.28-2a25.78,25.78,0,0,1,12.81-9.69,8.21,8.21,0,0,1,1.93-.6c.69-.13,1.38-.28,2.08-.44a2.13,2.13,0,0,1,.84-.16,2.2,2.2,0,0,0,.84-.16,2.5,2.5,0,0,1,1.08-.08,2.5,2.5,0,0,0,1.08-.08.65.65,0,0,1,.44,0A.65.65,0,0,0,286.12,111.18Zm81.44,54.69a6,6,0,0,0,.28.8,5.82,5.82,0,0,1,.32,1,2.47,2.47,0,0,1,0,1,1,1,0,0,1-.56.72,3.88,3.88,0,0,1-2.12.32c-1-.06-1.8-.08-2.44-.08h-3.77c-.42,0-.81,0-1.16,0a2.78,2.78,0,0,1-1-.12,2,2,0,0,1-1.28-1,4.86,4.86,0,0,1-.6-1.36,10.4,10.4,0,0,0-.52-1.44c-.27-.85-.55-1.71-.84-2.56s-.6-1.68-.92-2.48c-.16-.48-.31-.92-.44-1.32a10.29,10.29,0,0,0-.44-1.09,2.38,2.38,0,0,0-.72-.84,3.21,3.21,0,0,0-1.28-.52,6.29,6.29,0,0,1-.77,0c-.24,0-.49,0-.76,0H335.93c-.91,0-1.88,0-2.92,0a4,4,0,0,0-2.44.6,2.37,2.37,0,0,0-.88,1.28c-.16.54-.35,1.07-.56,1.61a20.59,20.59,0,0,0-1.09,2.84c-.29,1-.63,2-1,2.92q-.32.81-.6,1.68a2.7,2.7,0,0,1-.92,1.37,2.61,2.61,0,0,1-1.16.44,10.88,10.88,0,0,1-1.68.12c-.62,0-1.24,0-1.88,0s-1.21,0-1.69,0c-.69,0-1.53,0-2.52,0a4.11,4.11,0,0,1-2.12-.36.86.86,0,0,1-.44-.73,3.17,3.17,0,0,1,.08-1c.08-.34.17-.68.28-1a6.63,6.63,0,0,1,.32-.8c.53-1.22,1-2.48,1.48-3.76s.92-2.54,1.4-3.77a5.4,5.4,0,0,0,.48-1.28,6.92,6.92,0,0,1,.48-1.28c.43-1.12.86-2.27,1.29-3.44s.85-2.32,1.28-3.44.82-2.13,1.2-3.17.77-2.09,1.2-3.16q1.85-4.41,3.4-8.89t3.41-8.89q.15-.4.24-.72a5,5,0,0,1,.24-.72c.42-1.12.85-2.27,1.28-3.44s.88-2.33,1.36-3.45a15.52,15.52,0,0,0,.68-1.8,2.91,2.91,0,0,1,1-1.48,4,4,0,0,1,1-.4.45.45,0,0,1,.32,0,.45.45,0,0,0,.32,0h7.05c.58,0,1.19,0,1.8,0a2.66,2.66,0,0,1,2.64,1.76c.19.62.42,1.24.68,1.88.38.91.73,1.8,1,2.69s.66,1.77,1,2.68c.1.32.21.64.32,1s.21.64.32,1c.42,1.07.82,2.12,1.2,3.16s.77,2.1,1.2,3.17q1.61,4,3,8.08c.94,2.73,2,5.42,3.09,8.09a2.06,2.06,0,0,1,.19.6,2,2,0,0,0,.21.6l1,2.57,1,2.56a7.16,7.16,0,0,1,.48,1.24,11.82,11.82,0,0,0,.4,1.24q1,2.56,1.92,5.13t1.92,5a.79.79,0,0,1,.16.44A.85.85,0,0,0,367.56,165.87Zm-20.74-18.34a1.25,1.25,0,0,0,1-1.36,5.39,5.39,0,0,0-.48-1.84,1.29,1.29,0,0,1-.16-.6,1.29,1.29,0,0,0-.16-.6q-1-2.73-1.92-5.53t-2-5.6a7.43,7.43,0,0,1-.32-1,7.39,7.39,0,0,0-.4-1.12,4.33,4.33,0,0,0-.56-.92,1,1,0,0,0-.8-.41,1.27,1.27,0,0,1-.32.24,1.41,1.41,0,0,0-.32.24,5,5,0,0,0-.93,1.93,16.48,16.48,0,0,1-.68,2.16c-.64,1.49-1.21,3-1.72,4.57s-1.05,3.09-1.64,4.64c-.21.53-.4,1-.56,1.56s-.32,1.06-.48,1.64a2,2,0,0,0,.08,1.44,1.68,1.68,0,0,0,1.32.64c.61.06,1.24.08,1.88.08h7.69A6.16,6.16,0,0,0,346.82,147.53Zm26.35-34.91h13.09a3.28,3.28,0,0,1,2,.56,2.24,2.24,0,0,1,.8,1.16c.16.51.32,1,.48,1.48.32.86.63,1.72.92,2.61s.6,1.77.92,2.68q1.84,5,3.49,10.25t3.56,10.33a33.32,33.32,0,0,1,1.12,3.28c.33,1.12.7,2.22,1.13,3.28.1.27.21.54.32.81a1.28,1.28,0,0,0,.56.64l.32.16a.28.28,0,0,0,.32-.08,1.27,1.27,0,0,0,.88-1c.16-.54.32-1,.48-1.45.43-1.22.81-2.44,1.16-3.64s.73-2.42,1.16-3.64q1.6-4.89,3.2-9.81t3.21-9.89c.26-.86.53-1.7.8-2.53l.8-2.52.48-1.28a2.06,2.06,0,0,1,.88-1,1.85,1.85,0,0,1,1.24-.4H430.3a2,2,0,0,1,2.05,2.12v51.45c0,.59,0,1.16,0,1.72a1.67,1.67,0,0,1-.52,1.25,2.09,2.09,0,0,1-1.21.44c-.48,0-1,0-1.6,0h-6q-.64-.16-1.08-.24a1.16,1.16,0,0,1-.76-.57,1.56,1.56,0,0,1-.33-1v-26c-.05-.75-.07-1.46-.07-2.12V137.6q0-.63,0-1.32a4.17,4.17,0,0,0-.12-1.32,4.59,4.59,0,0,1-.15-1.2.75.75,0,0,0-.49-.8.29.29,0,0,0-.36.08,1.39,1.39,0,0,1-.2.24,2.56,2.56,0,0,0-.52.76q-.19.44-.36.84c-.32.8-.63,1.63-.92,2.48s-.6,1.71-.92,2.57c-.11.32-.2.64-.28,1a4.69,4.69,0,0,1-.36,1c-.27.69-.51,1.39-.72,2.08s-.45,1.39-.72,2.08a.91.91,0,0,0-.16.52,1,1,0,0,1-.16.52,8.35,8.35,0,0,0-.52,1.53,9,9,0,0,1-.6,1.6,8.24,8.24,0,0,0-.52,1.52,14.18,14.18,0,0,1-.52,1.6,48.73,48.73,0,0,0-1.69,4.69q-.72,2.35-1.6,4.68a.92.92,0,0,0-.16.48.84.84,0,0,1-.16.48,11,11,0,0,0-.64,1.8,10.42,10.42,0,0,1-.64,1.8l-.44,1.05a2,2,0,0,1-.6.8,1.59,1.59,0,0,1-.8.36,4.71,4.71,0,0,0-1,.2h-1.84c-.38,0-.82,0-1.33,0s-1,0-1.52,0a12,12,0,0,1-1.4-.08,2.07,2.07,0,0,1-1-.32,2.25,2.25,0,0,1-.88-.92c-.16-.35-.35-.77-.56-1.25a16.81,16.81,0,0,1-.68-2,17.48,17.48,0,0,0-.68-2l-.24-.72a18.76,18.76,0,0,1-.72-2c-.22-.72-.46-1.41-.72-2.05a2.18,2.18,0,0,1-.12-.43q0-.21-.12-.45a7.3,7.3,0,0,1-.64-1.52c-.16-.53-.35-1.07-.56-1.6a1,1,0,0,1-.12-.4,1.73,1.73,0,0,0-.12-.4,11,11,0,0,1-.52-1.6,8.07,8.07,0,0,0-.61-1.6c-.42-1.07-.82-2.19-1.2-3.37s-.77-2.32-1.2-3.44c-.48-1.33-.93-2.69-1.36-4.08a32.54,32.54,0,0,0-1.52-4,8.55,8.55,0,0,0-.88-1.84,3.76,3.76,0,0,0-.32-.28.32.32,0,0,0-.4,0,.86.86,0,0,0-.4.8,4.33,4.33,0,0,1-.16,1.12,3.23,3.23,0,0,0-.12,1.16c0,.4,0,.82,0,1.24v1.77c0,.59,0,1.17-.08,1.76v26.5a1.61,1.61,0,0,1-.32,1,1.64,1.64,0,0,1-1.21.73,3.89,3.89,0,0,1-1.2.12c-.42,0-.85,0-1.28,0h-4.16c-.59,0-1.12,0-1.6,0a2.06,2.06,0,0,1-1.2-.44,1.82,1.82,0,0,1-.57-1.25c-.05-.56-.08-1.13-.08-1.72V115.66a10.06,10.06,0,0,1,.08-1.24,3.14,3.14,0,0,1,.25-.92,1.92,1.92,0,0,1,1.28-.8.45.45,0,0,1,.32,0A.46.46,0,0,0,373.17,112.62Zm67.66,0h36.92c.64,0,1.25,0,1.84.08a1.65,1.65,0,0,1,1.28.64,1.18,1.18,0,0,1,.2.56,2.25,2.25,0,0,0,.2.64v.88a5.28,5.28,0,0,1,0,1.2c0,.43,0,.83,0,1.2s0,.84,0,1.25a5,5,0,0,1,0,1.16,6.92,6.92,0,0,0-.08,1.2,1.88,1.88,0,0,1-.8,1.28,2.14,2.14,0,0,1-1.2.32H457.65c-.43,0-.92,0-1.48,0a15.69,15.69,0,0,0-1.68,0,14.15,14.15,0,0,0-1.56.16,2.38,2.38,0,0,0-1,.36,1.64,1.64,0,0,0-.68,1.16,10,10,0,0,0-.13,1.72v6.89c.11.43.22.79.32,1.08a1.31,1.31,0,0,0,.57.68,2.1,2.1,0,0,0,1.12.36c.42,0,.88,0,1.36,0h18.1c.37,0,.84,0,1.4,0s1.1,0,1.64,0,1,.07,1.48.12a2.17,2.17,0,0,1,1,.32,1.41,1.41,0,0,1,.56,1,9.21,9.21,0,0,1,.2,1.57,16.44,16.44,0,0,1,0,1.72c0,.59,0,1.09,0,1.52v1.12a2.51,2.51,0,0,1-.16,1,1.9,1.9,0,0,1-.64,1,2.71,2.71,0,0,1-1.08.32,11.73,11.73,0,0,1-1.52.08c-.56,0-1.12,0-1.68,0s-1,0-1.4,0H456.69c-.64,0-1.25,0-1.84,0a7.88,7.88,0,0,0-1.64.08,3.1,3.1,0,0,0-1.29.48,2.09,2.09,0,0,0-.76,1.08,4.6,4.6,0,0,0-.08.84v8.37a9.87,9.87,0,0,0,.13,1.72,1.6,1.6,0,0,0,.68,1.16.93.93,0,0,0,.6.29,2.68,2.68,0,0,1,.76.2h.8a3.57,3.57,0,0,0,.88,0c.32,0,.61,0,.88,0h23.9a2.38,2.38,0,0,1,1.08.24,1.42,1.42,0,0,1,.88.88,2.91,2.91,0,0,1,.2,1c0,.37,0,.77,0,1.2v3.68c0,.64,0,1.24-.07,1.8a1.57,1.57,0,0,1-.73,1.25,1.9,1.9,0,0,1-1.24.4H442.2a12.66,12.66,0,0,1-2-.13,1.64,1.64,0,0,1-1.24-.75,2.27,2.27,0,0,1-.32-1.25V114.62a1.78,1.78,0,0,1,.32-1.12,1.91,1.91,0,0,1,1.2-.8.46.46,0,0,1,.32,0A.45.45,0,0,0,440.83,112.62Zm94.05,55.26a1.12,1.12,0,0,1,0,.88,1.46,1.46,0,0,1-.44.56,1.92,1.92,0,0,1-1.32.36c-.56,0-1.14,0-1.72,0H527a16.39,16.39,0,0,1-2.24-.13,1.82,1.82,0,0,1-1.44-.92,5.25,5.25,0,0,1-.72-2.56,16.39,16.39,0,0,0-.4-2.88,3.86,3.86,0,0,0,0-.6,3.28,3.28,0,0,1,0-.52,8.39,8.39,0,0,1-.24-2,11.81,11.81,0,0,0-.16-2,2.5,2.5,0,0,1-.08-.72c-.11-.58-.2-1.18-.28-1.8a13.65,13.65,0,0,0-.36-1.8,16.88,16.88,0,0,0-1.53-3.28,5.42,5.42,0,0,0-2.48-2.17,5.65,5.65,0,0,0-.8-.24,7.7,7.7,0,0,1-.88-.23,10.22,10.22,0,0,0-3.32-.49H501.65c-.43.11-.8.19-1.12.24a1.31,1.31,0,0,0-.8.48,3.64,3.64,0,0,0-.56,2.49c.05,1.12.08,2.13.08,3v10.25c0,.43,0,.87,0,1.32s0,.9,0,1.32v1.16a2.66,2.66,0,0,1-.16.93,1.44,1.44,0,0,1-1,1,2.67,2.67,0,0,1-1,.16h-4.8c-.86,0-1.76,0-2.73,0a3.39,3.39,0,0,1-2.16-.52,1.63,1.63,0,0,1-.64-1.49V116.86c0-.58,0-1.2,0-1.84a2.47,2.47,0,0,1,.36-1.52,2.39,2.39,0,0,1,1.21-.8.51.51,0,0,1,.35,0,.57.57,0,0,0,.37,0h27.22c.86,0,1.67,0,2.44,0a11.92,11.92,0,0,1,2.21.28,2.13,2.13,0,0,0,.84.16,2.2,2.2,0,0,1,.84.16l1.12.32a10,10,0,0,1,1.12.4,18.15,18.15,0,0,1,3.68,2.16,12.16,12.16,0,0,1,2.81,3,4.05,4.05,0,0,1,.52.84,4.16,4.16,0,0,0,.52.84,9.49,9.49,0,0,1,1,2.32q.32,1.2.72,2.64a1.74,1.74,0,0,1,0,.64,1,1,0,0,0,.12.64v.72a4.86,4.86,0,0,1,.08,1.57,7.73,7.73,0,0,1-.24,1.48,4.6,4.6,0,0,0-.16,1.16,3.77,3.77,0,0,1-.16,1.08c-.27.8-.53,1.56-.8,2.28a10.31,10.31,0,0,1-1,2c-.11.16-.24.34-.4.53a4,4,0,0,0-.4.52c-.16.21-.34.42-.52.64a4.48,4.48,0,0,1-.6.56l-1,.8c-.32.27-.67.53-1.05.8-.21.16-.42.33-.64.52a1.83,1.83,0,0,0-.48.68.72.72,0,0,0,.16.8,4,4,0,0,0,.56.48l1.6,1.28a6.41,6.41,0,0,1,1.37,1.52A13.52,13.52,0,0,1,532,149.3a30.47,30.47,0,0,1,1,3.28,9.14,9.14,0,0,1,.2,1.52,9,9,0,0,0,.2,1.52,9,9,0,0,0,0,.92,9.17,9.17,0,0,1,0,.92,1.92,1.92,0,0,1,0,.68,2.54,2.54,0,0,0,0,.77,1.68,1.68,0,0,1,0,.63,2.32,2.32,0,0,0,0,.73,8.26,8.26,0,0,1,.16,1.68,8.26,8.26,0,0,0,.16,1.68l.24,1.44c.11.48.21,1,.32,1.44S534.77,167.45,534.88,167.88Zm-13.21-36.12a8.39,8.39,0,0,0,0-2.16,15.15,15.15,0,0,0-.28-1.93,1.23,1.23,0,0,1-.16-.56.92.92,0,0,0-.16-.48,6.34,6.34,0,0,0-3.53-3.6,8,8,0,0,0-3.12-.72c-1.17,0-2.4-.08-3.68-.08h-9.29a.32.32,0,0,1-.32.12,1.22,1.22,0,0,0-.32,0,1.92,1.92,0,0,0-1.28.8,2.78,2.78,0,0,0-.36,1.64c0,.67,0,1.32,0,2v9.37a2.54,2.54,0,0,0,.4,1.52,1.61,1.61,0,0,0,1,.65,15.59,15.59,0,0,0,1.6.24,15.89,15.89,0,0,0,1.84,0c.64,0,1.2,0,1.68,0h4.73c.37,0,.77,0,1.2,0a3.27,3.27,0,0,0,1.12-.12h1a5,5,0,0,1,1.24-.16,4.07,4.07,0,0,0,1.16-.17,9.4,9.4,0,0,0,2.4-1,5.67,5.67,0,0,0,1.77-1.68,5.41,5.41,0,0,0,.72-1.6C521.35,133.17,521.51,132.51,521.67,131.76Zm25.46,29.31v-1.53a1.93,1.93,0,0,1,.32-1.2,2.21,2.21,0,0,1,1.2-.88,2.47,2.47,0,0,1,.36,0,.48.48,0,0,0,.36,0h8.13a2.32,2.32,0,0,1,1.4.41,1.58,1.58,0,0,1,.56,1.12,13.06,13.06,0,0,1,.08,1.6v5.76a14,14,0,0,1-.08,1.64,1.53,1.53,0,0,1-.48,1.09,2.87,2.87,0,0,1-1.36.48c-.53.05-1.09.08-1.68.08h-5.37c-.58,0-1.14,0-1.68-.08a1.75,1.75,0,0,1-1.2-.56,2.3,2.3,0,0,1-.48-1.24c-.05-.51-.08-1.06-.08-1.65Zm20.34-48.45H574c.59,0,1.16,0,1.72,0a3,3,0,0,1,1.48.28,2.61,2.61,0,0,1,1.24,1c.3.43.58.86.84,1.28l2.89,4.57c1.86,3,3.75,6.07,5.64,9.09s3.78,6,5.65,9.08c.91,1.45,1.8,2.9,2.68,4.37s1.8,2.9,2.76,4.28q.33.48.6,1a3.34,3.34,0,0,0,.76.89,2.78,2.78,0,0,0,.4.31.39.39,0,0,0,.48,0,.68.68,0,0,0,.57-.72,4.84,4.84,0,0,1,.16-1.2,7,7,0,0,0,0-1.24c0-.45,0-.89,0-1.32V117.5c0-.26,0-.53,0-.8a1.9,1.9,0,0,1,0-.72v-.88a2.87,2.87,0,0,1,.48-1.76,1.46,1.46,0,0,1,1.08-.64,14.19,14.19,0,0,1,1.56-.08h6.17a3.48,3.48,0,0,1,1.12.16,1.58,1.58,0,0,1,1.12,1.4c0,.67.08,1.46.08,2.36v49.09c0,.59,0,1.18,0,1.76a2.37,2.37,0,0,1-.28,1.37,1.43,1.43,0,0,1-.76.6l-1.08.28h-8.61a2.55,2.55,0,0,1-1.16-.24,3.28,3.28,0,0,1-1.37-1.09c-.32-.45-.64-.94-1-1.48-.48-.75-1-1.5-1.4-2.28s-.92-1.53-1.4-2.28l-12-19.22c-.75-1.23-1.48-2.42-2.2-3.56s-1.46-2.34-2.21-3.57c-.26-.37-.57-.84-.92-1.4a1.57,1.57,0,0,0-1.4-.84A1.8,1.8,0,0,0,577,135c0,.48,0,1.1,0,1.84v27.87a7,7,0,0,0,0,.8,1.58,1.58,0,0,1-.12.8v.88a3.25,3.25,0,0,1-.4,1.85,1.63,1.63,0,0,1-1.08.56,14.19,14.19,0,0,1-1.56.08h-6.17a3.73,3.73,0,0,1-1.12-.16,1.68,1.68,0,0,1-1.16-1.45,21.1,21.1,0,0,1-.12-2.4V115a3.1,3.1,0,0,1,.32-1.52,1.83,1.83,0,0,1,1.12-.8,1.59,1.59,0,0,0,.36,0A1.59,1.59,0,0,1,567.47,112.62Zm106.66,26.59a7,7,0,0,1,.2,1.64,5.05,5.05,0,0,1-.12,1.64v1a8.26,8.26,0,0,0-.16,1.68,10.38,10.38,0,0,1-.16,1.76,7.59,7.59,0,0,0-.24,1.13c-.06.37-.14.74-.24,1.12-.27,1-.52,1.89-.76,2.8a18.31,18.31,0,0,1-.92,2.64,26.69,26.69,0,0,1-6.49,9.33,27.92,27.92,0,0,1-10.09,5.73,11.52,11.52,0,0,1-1.76.48l-1.76.32a2.41,2.41,0,0,1-.84.16,3.89,3.89,0,0,0-.85.08l-2.64.24a4.93,4.93,0,0,1-1.12,0,5.48,5.48,0,0,1-1-.12,2.2,2.2,0,0,0-.76,0,2.84,2.84,0,0,1-.76,0h-.88a6.25,6.25,0,0,0-1.2-.2,7.9,7.9,0,0,1-1.2-.2c-.43-.11-.86-.2-1.29-.28s-.85-.18-1.28-.28c-.59-.22-1.18-.43-1.8-.64s-1.21-.46-1.8-.72A24.64,24.64,0,0,1,626,163a27.64,27.64,0,0,1-5.4-8.29,17.23,17.23,0,0,1-.81-2.36q-.32-1.25-.72-2.52a2.1,2.1,0,0,1-.16-.68,2.16,2.16,0,0,0-.08-.6,11,11,0,0,1-.24-1.17,10,10,0,0,0-.24-1.24,2.82,2.82,0,0,1,0-.76,1.14,1.14,0,0,0-.12-.68,3.35,3.35,0,0,1,0-1,2.8,2.8,0,0,0,0-1,4.89,4.89,0,0,1,0-2.48,1.63,1.63,0,0,0,0-.76,2,2,0,0,1,0-.77v-.48a2.9,2.9,0,0,0,.12-1.08,2.81,2.81,0,0,1,.12-1,2.13,2.13,0,0,0,.16-.84,2.41,2.41,0,0,1,.16-.84,25.31,25.31,0,0,0,.64-2.68,14.18,14.18,0,0,1,.73-2.6q.63-1.36,1.2-2.73a13.92,13.92,0,0,1,1.36-2.56,26.12,26.12,0,0,1,5.52-6.41,30.14,30.14,0,0,1,7.61-4.4,13.7,13.7,0,0,1,2.2-.64c.78-.16,1.54-.35,2.29-.56a2,2,0,0,1,.76-.16,4.18,4.18,0,0,0,.76-.08l2.4-.24a.65.65,0,0,1,.44,0,.65.65,0,0,0,.44,0A29.85,29.85,0,0,1,655,112.5a26.9,26.9,0,0,1,7.45,3.64c.69.48,1.41,1,2.16,1.64a11.19,11.19,0,0,1,1.84,1.89c.27.26.54.54.8.84s.51.57.72.84c.59.85,1.18,1.72,1.76,2.6a17.17,17.17,0,0,1,1.53,2.84c.32.75.6,1.47.84,2.17s.49,1.44.76,2.24c.16.53.29,1.08.4,1.64s.24,1.13.4,1.72a3.87,3.87,0,0,1,.16,1.08,3,3,0,0,0,.16,1,2.81,2.81,0,0,1,.12,1,3.1,3.1,0,0,0,0,.93Zm-12.41,3.36a3.42,3.42,0,0,0,.16-1.16,3.38,3.38,0,0,0-.16-1.16v-1.37a1.38,1.38,0,0,1,0-.6,1.1,1.1,0,0,0-.12-.59,6.36,6.36,0,0,1-.2-1.25,6.39,6.39,0,0,0-.2-1.16,2.78,2.78,0,0,0-.17-.88c-.15-.59-.31-1.17-.47-1.76a12,12,0,0,0-.64-1.76,16.26,16.26,0,0,0-5.09-6.61q-3.33-2.52-9.25-2.52a.62.62,0,0,1-.36,0,.55.55,0,0,0-.36,0,1.73,1.73,0,0,1-.64,0,1.37,1.37,0,0,0-.72.12c-.59.11-1.16.23-1.72.36a9.32,9.32,0,0,0-1.57.52,13,13,0,0,0-5.32,4,21,21,0,0,0-3.16,6.17,14.27,14.27,0,0,0-.36,1.72,13.88,13.88,0,0,1-.36,1.72,2.26,2.26,0,0,0-.08.6,2.77,2.77,0,0,1-.08.61,1.61,1.61,0,0,0-.09.88,2.17,2.17,0,0,1,0,.88,5.14,5.14,0,0,0-.19,1.48,4,4,0,0,0,.12,1.48v.88a3,3,0,0,1,.07.68,2.48,2.48,0,0,0,.09.68,3.78,3.78,0,0,0,0,.6,5.66,5.66,0,0,1,0,.6,14.1,14.1,0,0,1,.36,1.76,6.89,6.89,0,0,0,.44,1.69,25.78,25.78,0,0,0,2.16,4.76,11,11,0,0,0,3.2,3.56,3.75,3.75,0,0,0,.84.64c.3.16.6.33.92.48a8.17,8.17,0,0,0,1.89.89c.66.21,1.37.42,2.12.64a1.73,1.73,0,0,0,.76.12,2.2,2.2,0,0,1,.76,0,3.22,3.22,0,0,0,1,.16H647a2,2,0,0,1,.72,0,1.6,1.6,0,0,0,.72-.12c.54-.11,1.07-.2,1.6-.28a6,6,0,0,0,1.53-.44,14.29,14.29,0,0,0,5.4-3.53,18.26,18.26,0,0,0,3.33-5.6,9.27,9.27,0,0,0,.6-1.93,18.06,18.06,0,0,1,.52-2.08l.24-1.92a3,3,0,0,0,.08-.68v-1.4Z" transform="translate(-41.46 -82.69)"/><path class="a" d="M180.57,82.69s47.52,19.38,41,66c-2.75,19.56-13.29,34.46-28.26,45.19-18.49,13.24-23.19-.91-23.19-.91l22.3-62.34V126H93.3L82.14,156.84l40.69.66s1.31,23-35.44,23c-40.68,0-45.93-29.53-45.93-37.4S52.62,94.5,97.24,94.5c28.21,0,36.09,17.06,36.09,17.06l63-3.28a19.79,19.79,0,0,0-2.66-12.44C189.53,89.12,180.57,82.69,180.57,82.69Z" transform="translate(-41.46 -82.69)"/></svg>